<?xml version="1.0" encoding="UTF-8" standalone="no"?>
<!-- Created with Inkscape (http://www.inkscape.org/) -->
<svg xmlns:dc="http://purl.org/dc/elements/1.1/" xmlns:cc="http://creativecommons.org/ns#" xmlns:rdf="http://www.w3.org/1999/02/22-rdf-syntax-ns#" xmlns:svg="http://www.w3.org/2000/svg" xmlns="http://www.w3.org/2000/svg" xmlns:sodipodi="http://sodipodi.sourceforge.net/DTD/sodipodi-0.dtd" xmlns:inkscape="http://www.inkscape.org/namespaces/inkscape" width="419.11673" height="210.82872" id="svg6226" version="1.1" inkscape:version="0.48.3.1 r9886" sodipodi:docname="cpt-logomark-3.svg">
  <defs id="defs6228"/>
  <sodipodi:namedview id="base" pagecolor="#ffffff" bordercolor="#666666" borderopacity="1.0" inkscape:pageopacity="0.0" inkscape:pageshadow="2" inkscape:zoom="0.9899495" inkscape:cx="261.66629" inkscape:cy="6.2468172" inkscape:document-units="px" inkscape:current-layer="layer1" showgrid="false" fit-margin-top="0" fit-margin-left="0" fit-margin-right="0" fit-margin-bottom="0" inkscape:window-width="736" inkscape:window-height="665" inkscape:window-x="594" inkscape:window-y="1086" inkscape:window-maximized="0"/>
  <metadata id="metadata6231">
    <rdf:RDF>
      <cc:Work rdf:about="">
        <dc:format>image/svg+xml</dc:format>
        <dc:type rdf:resource="http://purl.org/dc/dcmitype/StillImage"/>
        <dc:title/>
      </cc:Work>
    </rdf:RDF>
  </metadata>
  <g inkscape:label="Layer 1" inkscape:groupmode="layer" id="layer1" transform="translate(-133.29878,-321.23353)">
    <text xml:space="preserve" style="font-size:11.94321728000000071px;font-style:normal;font-variant:normal;font-weight:normal;font-stretch:normal;line-height:125%;letter-spacing:0px;word-spacing:0px;fill:#ffffff;fill-opacity:1;stroke:none;font-family:TakaoPGothic;-inkscape-font-specification:TakaoPGothic" x="131.4171" y="531.90674" id="text2985-8-0-6-8-0-9-7-8" sodipodi:linespacing="125%"><tspan sodipodi:role="line" id="tspan2987-8-6-1-6-54-1-1-8" x="131.4171" y="531.90674" style="font-size:23.88643456000000143px;font-style:normal;font-variant:normal;font-weight:normal;font-stretch:normal;fill:#ffffff;fill-opacity:1;font-family:TakaoPGothic;-inkscape-font-specification:TakaoPGothic"><tspan style="font-size:31.84858131000000014px;fill:#ffffff;fill-opacity:1;font-family:TakaoPGothic;-inkscape-font-specification:TakaoPGothic" id="tspan4037-50-3-3-3-5">Center for P</tspan>HAGE <tspan style="font-size:31.84858131000000014px;fill:#ffffff;fill-opacity:1;font-family:TakaoPGothic;-inkscape-font-specification:TakaoPGothic" id="tspan3899-1-5-2-4">T</tspan>ECHNOLOGY</tspan></text>
    <text xml:space="preserve" style="font-size:77.16294098000000190px;font-style:normal;font-variant:normal;font-weight:normal;font-stretch:normal;line-height:125%;letter-spacing:0px;word-spacing:0px;fill:#ffffff;fill-opacity:1;stroke:none;font-family:TakaoPGothic;-inkscape-font-specification:TakaoPGothic" x="242.07841" y="464.40424" id="text2985-8-2-3-6-7-5-9" sodipodi:linespacing="125%"><tspan id="tspan7301-9" sodipodi:role="line" x="242.07841" y="464.40424" style="font-size:154.32588196000000380px;font-style:normal;font-variant:normal;font-weight:normal;font-stretch:normal;fill:#ffffff;fill-opacity:1;font-family:TakaoPGothic;-inkscape-font-specification:TakaoPGothic">CPT</tspan></text>
    <g transform="matrix(0.38936946,0,0,0.38936946,34.843002,192.51054)" id="g3831-82-9-3-7-86-0-0-8-9" style="fill:#ffffff;fill-opacity:1;stroke:none" inkscape:export-filename="/home/hxr/work/branding/CPT_logo_gears_doublehelix_righthanded_white_outline.svg.png" inkscape:export-xdpi="359.98047" inkscape:export-ydpi="359.98047">
      <path sodipodi:nodetypes="cccc" inkscape:connector-curvature="0" id="path3010-4-8-2-3-2-0-8-0-1" d="m 364.91415,345.52024 -80.09939,52.0569 41.05656,0 z" style="fill:#ffffff;fill-opacity:1;stroke:none"/>
      <path sodipodi:nodetypes="cccc" inkscape:connector-curvature="0" id="path3010-5-9-3-9-4-6-6-7-2-3" d="m 377.12132,337.57736 -45,60 90,0 z" style="fill:#ffffff;fill-opacity:1;stroke:none"/>
      <path sodipodi:nodetypes="cccc" inkscape:connector-curvature="0" id="path3010-0-2-6-3-5-7-5-31-7-4" d="m 277.12132,402.57714 0,90.00022 44.99999,-90.00022 z" style="fill:#ffffff;fill-opacity:1;stroke:none"/>
      <path sodipodi:nodetypes="cccc" inkscape:connector-curvature="0" id="path3010-48-6-5-2-4-2-2-09-6-4" d="m 327.12132,403.75759 -46.92002,93.81977 93.84004,0 z" style="fill:#ffffff;fill-opacity:1;stroke:none"/>
      <path sodipodi:nodetypes="cccc" inkscape:connector-curvature="0" id="path3010-48-8-8-3-3-2-0-5-6-1-1" d="m 377.12132,492.57737 -45,-90.00023 90,0 z" style="fill:#ffffff;fill-opacity:1;stroke:none"/>
      <path sodipodi:nodetypes="cccc" inkscape:connector-curvature="0" id="path3010-48-4-8-8-9-3-4-1-6-6-6" d="m 427.12132,403.75759 -46.92,93.81977 93.84002,0 z" style="fill:#ffffff;fill-opacity:1;stroke:none"/>
      <g transform="translate(2.1213236,2.1213201)" style="fill:#ffffff;fill-opacity:1;stroke:none" id="g3009-8-6-0-2-49-9-5-6-49">
        <g style="fill:#ffffff;fill-opacity:1;stroke:none" id="g3006-90-6-3-5-7-1-9-2-4">
          <path sodipodi:nodetypes="cccc" inkscape:connector-curvature="0" id="path3010-8-09-7-1-3-4-9-2-2-9" d="m 372.5,500.45604 -91.34,0 91.34,60 z" style="fill:#ffffff;fill-opacity:1;stroke:none"/>
        </g>
        <path style="fill:#ffffff;fill-opacity:1;stroke:none" d="m 377.5,500.45604 91.34,0 -91.34,60 z" id="path3010-8-0-26-9-9-2-0-2-7-17-2" inkscape:connector-curvature="0" sodipodi:nodetypes="cccc"/>
      </g>
      <path sodipodi:nodetypes="cccccsssccccccsccccccccscc" inkscape:connector-curvature="0" id="path3835-4-2-4-7-8-1-8-0-5-1" d="m 463.20082,421.81664 -10.10723,2.22411 0.24648,6.28661 c -2.18689,1.00004 -4.22206,2.24586 -6.09375,3.71875 l 4.34375,8.6875 c 3.33863,-3.20756 7.75722,-5.31259 12.6875,-5.5625 0.33875,-0.0172 0.68823,0 1.03125,0 10.97666,0 19.875,8.89834 19.875,19.875 0,9.9155 -7.28632,18.06592 -16.78125,19.5625 l 4.3125,8.6875 c 5.17358,-1.3536 9.7829,-4.08136 13.4375,-7.75 l 5.81694,2.41345 5.24204,-8.18045 -4.46523,-4.38925 c 1.22668,-3.2132 1.90625,-6.68969 1.90625,-10.34375 0,-0.14762 0.002,-0.29039 0,-0.4375 l 5.82858,-2.34191 -2.0268,-9.81082 -6.48928,0.34023 c -1.50648,-3.27124 -3.58384,-6.22999 -6.125,-8.71875 l 2.78753,-5.5098 -8.79917,-5.68398 -4.20711,4.69378 c -3.20892,-1.20543 -6.68296,-1.875 -10.3125,-1.875 -0.0417,0 -0.0833,-1.8e-4 -0.125,0 z" style="fill:#ffffff;fill-opacity:1;stroke:none"/>
      <g id="g4450-5-4-7-6-7-0-3-9-74" transform="translate(418.86705,383.18754)" inkscape:label="Gear10" style="fill:#ffffff;fill-opacity:1;stroke:none">
        <path sodipodi:nodetypes="cccccccccccscscccccccccccc" id="path4452-1-9-0-2-8-9-9-4-4" d="m 36.034023,-14.794082 c 5.767942,0.22031 6.253725,0.232907 12.440438,0.408338 l 1.499112,7.4751431 c -5.603623,3.2383892 -5.838282,3.3546568 -11.017655,6.69826343 L 37.510527,11.060285 c 4.521412,3.761737 5.345942,4.552609 9.671157,8.460821 l -2.517176,5.325006 C 38.822083,24.662337 37.835941,24.485626 31.642642,23.469294 l -7.795774,8.270599 4.614473,10.72652 c -0.47087,1.583513 -0.540627,2.762559 -1.299491,4.07386 C 10.698952,14.737468 11.190001,15.174965 10.087158,13.734201 9.3113438,12.72067 8.6474071,11.335858 -24.633324,-31.614897 c -4.648326,-5.802197 -5.143236,-6.355982 -5.216749,-6.564869 -0.07872,-0.223678 -0.08832,-0.592168 -0.598233,-5.860511 l 6.542173,-2.953393 c 3.607833,3.85594 4.81995,4.876275 9.813521,9.413625 l 9.0417472,-2.608582 c 1.9549996,-5.660634 2.3339563,-6.401032 4.6277088,-12.405463 l 7.84276,0.374423 c 0.5897273,5.45574 0.7069586,6.326342 1.769276,13.026749 l 11.024878,4.733375 c 5.303714,-3.855633 6.066096,-4.368428 10.835941,-7.40737 l 6.035627,5.165454 c -3.182513,5.578677 -3.508252,6.100249 -6.882754,12.031756 z" style="fill:#ffffff;fill-opacity:1;stroke:none" inkscape:connector-curvature="0"/>
      </g>
    </g>
    <rect style="fill:#8f8f8c;fill-opacity:1;fill-rule:nonzero;stroke:none" id="rect3969-22-5-76-1-91-1-8-2-0-1-67-73-2-5" width="34.647179" height="10.557903" x="198.33334" y="358.46008" transform="matrix(0.84285966,0.53813344,0,1,0,0)"/>
    <rect style="fill:#8f8f8c;fill-opacity:1;fill-rule:nonzero;stroke:none" id="rect3969-22-2-03-8-6-7-9-1-5-2-9" width="34.647179" height="10.557903" x="198.2807" y="298.17291" transform="matrix(0.84285966,0.53813344,0,1,0,0)"/>
    <rect style="fill:#8f8f8c;fill-opacity:1;fill-rule:nonzero;stroke:none" id="rect3969-22-5-2-7-1-2-9-7-0-95-3-2" width="34.647179" height="10.557903" x="198.2807" y="319.19876" transform="matrix(0.84285966,0.53813344,0,1,0,0)"/>
    <rect style="fill:#8f8f8c;fill-opacity:1;fill-rule:nonzero;stroke:none" id="rect3969-22-5-76-1-91-1-8-2-0-1-67-4-3" width="34.647179" height="10.557903" x="198.2807" y="340.22473" transform="matrix(0.84285966,0.53813344,0,1,0,0)"/>
    <rect style="fill:#ffffff;fill-opacity:1;fill-rule:nonzero;stroke:none" id="rect3969-22-9-6-4-6-17-1-3-0-6" width="34.647179" height="10.557903" x="-232.92796" y="530.2204" transform="matrix(-0.84285966,0.53813344,0,1,0,0)"/>
    <rect style="fill:#ffffff;fill-opacity:1;fill-rule:nonzero;stroke:none" id="rect3969-22-5-9-6-9-6-5-7-7-3-6" width="34.647179" height="10.557903" x="-232.92796" y="551.24634" transform="matrix(-0.84285966,0.53813344,0,1,0,0)"/>
    <rect style="fill:#ffffff;fill-opacity:1;fill-rule:nonzero;stroke:none" id="rect3969-22-5-76-2-0-0-3-1-0-2-4-5" width="34.647179" height="10.557903" x="-232.92796" y="572.27234" transform="matrix(-0.84285966,0.53813344,0,1,0,0)"/>
    <rect style="fill:#ffffff;fill-opacity:1;fill-rule:nonzero;stroke:none" id="rect3969-22-5-76-2-0-0-3-1-0-2-7-7-5" width="34.647179" height="10.557903" x="-232.98061" y="590.56409" transform="matrix(-0.84285966,0.53813344,0,1,0,0)"/>
  </g>
</svg>